<?xml version="1.0" standalone="no"?>
<!DOCTYPE svg PUBLIC "-//W3C//DTD SVG 20010904//EN"
 "http://www.w3.org/TR/2001/REC-SVG-20010904/DTD/svg10.dtd">
<svg version="1.0" xmlns="http://www.w3.org/2000/svg"
 width="1080.000000pt" height="1080.000000pt" viewBox="0 0 1080.000000 1080.000000"
 preserveAspectRatio="xMidYMid meet">

<g transform="translate(0.000000,1080.000000) scale(0.100000,-0.100000)"
fill="#000000" stroke="none">
<path d="M9234 9403 c-1996 -637 -3606 -1004 -5109 -1162 -409 -44 -946 -79
-1260 -83 -226 -2 -221 1 -223 -138 -7 -316 -55 -912 -113 -1388 -178 -1472
-529 -3038 -1122 -5021 -35 -118 -62 -223 -59 -233 6 -26 41 -39 67 -25 21 11
332 279 675 582 113 99 246 217 295 260 50 44 205 183 345 310 1977 1785 3815
3623 5566 5565 461 512 1132 1278 1151 1315 14 26 1 61 -25 67 -10 3 -95 -19
-188 -49z m6 -108 c0 -7 -645 -746 -740 -848 -20 -21 -458 -92 -1055 -172
-187 -24 -350 -46 -362 -48 -12 -2 -20 -1 -18 3 3 4 38 57 78 119 41 61 114
178 163 260 l88 150 116 31 c484 131 1132 320 1515 443 214 69 215 70 215 62z
m-1990 -580 c0 -17 -281 -457 -314 -493 -15 -15 -304 -50 -761 -92 -285 -25
-895 -70 -962 -70 -21 0 -18 8 36 93 32 50 65 106 74 124 16 29 22 32 114 48
420 73 1066 212 1513 324 284 71 300 75 300 66z m1109 -422 c-24 -31 -365
-409 -603 -668 -425 -463 -608 -655 -625 -655 -67 0 -951 130 -951 140 0 3 42
52 92 110 231 268 441 527 616 763 86 116 106 137 129 137 42 0 813 106 1083
149 299 48 276 45 259 24z m-3202 -100 c-31 -48 -67 -101 -81 -118 l-24 -29
-617 -4 c-521 -4 -616 -2 -610 9 34 58 47 69 84 69 97 0 784 85 1121 139 96
15 177 26 179 25 2 -2 -22 -43 -52 -91z m-1427 -99 c0 -3 -5 -15 -11 -26 -11
-20 -16 -20 -173 -13 -88 4 -179 10 -201 15 -35 7 -29 8 40 10 44 1 118 5 165
9 114 10 180 12 180 5z m3063 -71 c-94 -127 -270 -350 -377 -478 -129 -155
-344 -402 -356 -410 -11 -7 -267 40 -575 106 -256 55 -750 175 -773 188 -11 6
-4 19 34 62 68 75 249 299 317 392 l57 77 64 0 c172 0 1116 76 1476 119 85 10
163 19 173 20 13 1 2 -19 -40 -76z m-3417 -58 c115 -8 219 -15 232 -15 21 0
18 -7 -34 -70 -32 -38 -61 -70 -66 -70 -11 0 -431 170 -438 177 -3 3 18 3 46
-1 27 -3 144 -13 260 -21z m1604 -24 c0 -10 -197 -255 -308 -384 -58 -65 -91
-96 -101 -92 -9 2 -101 29 -206 60 -186 54 -646 204 -712 231 -18 8 -33 17
-33 20 0 2 30 41 67 84 l66 80 556 3 c306 1 582 3 614 5 31 1 57 -2 57 -7z
m-1784 -115 c120 -49 222 -92 226 -95 4 -3 -23 -39 -60 -79 l-67 -73 -170 172
c-93 94 -165 170 -159 168 6 -2 109 -44 230 -93z m-51 -382 c-38 -35 -72 -64
-75 -64 -3 0 -12 17 -19 38 -8 20 -51 127 -97 236 l-83 200 172 -173 172 -172
-70 -65z m-246 81 c44 -110 81 -205 83 -212 3 -10 -122 -126 -129 -120 -1 2
-9 104 -18 227 -8 124 -18 245 -21 270 -4 25 -4 43 -1 40 3 -3 41 -95 86 -205z
m961 55 c162 -54 375 -122 472 -151 l178 -52 -99 -106 c-55 -58 -167 -173
-250 -256 l-151 -150 -322 322 -321 321 84 91 c55 59 89 88 99 85 8 -3 148
-50 310 -104z m-1119 -243 l13 -228 -35 -28 c-19 -16 -36 -28 -37 -26 -2 2 3
95 12 207 19 237 26 311 31 306 1 -1 9 -106 16 -231z m1171 -560 c-19 -22
-297 -277 -415 -381 -43 -38 -80 -66 -82 -64 -3 3 -32 94 -64 204 -33 109
-101 320 -151 468 l-92 269 88 83 89 82 322 -321 c311 -310 322 -322 305 -340z
m1563 365 c154 -33 325 -68 380 -78 55 -9 104 -21 108 -25 13 -10 -221 -258
-655 -694 l-388 -390 -419 419 -420 419 271 277 271 276 286 -72 c157 -40 412
-99 566 -132z m-2354 -216 c39 -116 102 -314 140 -441 l70 -230 -48 -43 c-42
-38 -242 -207 -387 -326 l-49 -41 6 70 c4 39 7 313 7 610 l0 541 82 67 81 68
14 -32 c7 -17 45 -126 84 -243z m3269 45 c140 -22 345 -52 455 -66 110 -14
203 -27 207 -28 11 -3 -673 -717 -1115 -1163 l-386 -389 -280 280 -280 279
422 426 c232 234 481 489 552 568 102 112 134 142 150 138 11 -3 135 -23 275
-45z m-3635 -1026 l-7 -181 -101 -79 c-169 -134 -180 -141 -173 -119 24 78
186 1229 186 1326 0 9 21 33 48 53 l47 37 3 -429 c2 -235 0 -509 -3 -608z
m1668 357 l418 -418 -188 -175 c-460 -429 -893 -813 -904 -802 -3 4 -14 51
-24 103 -43 240 -189 873 -258 1122 l-25 86 86 73 c102 87 407 365 441 403 14
14 27 26 30 26 3 0 194 -188 424 -418z m-980 -482 c69 -276 146 -627 192 -864
21 -114 24 -141 13 -151 -123 -113 -927 -780 -932 -774 -2 2 3 56 10 119 39
333 114 1296 114 1467 0 39 3 79 6 87 4 9 81 78 173 153 91 76 204 170 251
211 l85 74 11 -29 c7 -15 41 -147 77 -293z m1752 -291 l280 -281 -415 -410
c-390 -385 -1111 -1080 -1128 -1086 -4 -1 -20 93 -36 210 -25 197 -110 746
-122 794 -4 17 31 53 198 200 215 189 679 612 838 763 52 49 97 90 100 91 3 0
131 -126 285 -281z m-2475 -280 c-29 -436 -94 -1157 -115 -1286 -5 -28 -41
-60 -285 -253 -154 -121 -281 -220 -283 -220 -3 0 16 82 40 183 121 498 239
1038 322 1477 27 145 55 266 60 268 12 4 171 124 236 178 l40 33 3 -33 c2 -19
-6 -175 -18 -347z m1009 -829 c43 -280 101 -702 101 -743 0 -19 -46 -67 -197
-209 -455 -424 -1123 -1032 -1129 -1026 -2 2 15 121 37 263 35 232 122 873
147 1094 6 46 14 87 19 91 4 4 71 58 148 121 160 129 633 524 745 622 41 36
78 62 81 59 3 -4 25 -126 48 -272z m-1146 -657 c-41 -326 -113 -860 -151
-1111 -40 -262 -53 -327 -68 -342 -73 -68 -809 -712 -855 -748 -13 -9 -7 19
22 115 106 347 358 1253 450 1614 7 29 24 48 85 94 42 31 175 135 296 231 121
96 221 174 222 174 2 0 1 -12 -1 -27z"/>
<path d="M6450 5435 c-277 -41 -520 -164 -721 -364 -282 -283 -418 -675 -368
-1062 37 -288 153 -529 352 -735 181 -188 410 -315 667 -371 119 -25 391 -25
510 0 511 110 897 496 1007 1007 25 119 25 391 0 510 -93 431 -401 794 -803
945 -203 77 -433 102 -644 70z m335 -96 c190 -23 408 -112 563 -228 406 -307
573 -841 412 -1323 -61 -182 -143 -313 -289 -459 -146 -146 -277 -228 -459
-289 -482 -161 -1016 6 -1323 412 -73 98 -161 275 -194 392 -115 406 3 855
305 1156 260 260 619 384 985 339z"/>
<path d="M6509 4594 c-288 -88 -410 -428 -244 -678 126 -190 363 -253 571
-151 223 109 312 386 196 610 -49 95 -155 183 -264 217 -71 22 -192 23 -259 2z"/>
</g>
</svg>
