<?xml version="1.0" standalone="no"?>
<!DOCTYPE svg PUBLIC "-//W3C//DTD SVG 20010904//EN"
 "http://www.w3.org/TR/2001/REC-SVG-20010904/DTD/svg10.dtd">
<svg version="1.0" xmlns="http://www.w3.org/2000/svg"
 width="1080.000000pt" height="1080.000000pt" viewBox="0 0 1080.000000 1080.000000"
 preserveAspectRatio="xMidYMid meet">

<g transform="translate(0.000000,1080.000000) scale(0.100000,-0.100000)"
fill="#000000" stroke="none">
<path d="M0 5400 l0 -5400 5400 0 5400 0 0 5400 0 5400 -5400 0 -5400 0 0
-5400z m9450 4026 c4 -12 3 -30 -3 -41 -19 -37 -690 -803 -1151 -1315 -1751
-1942 -3589 -3780 -5566 -5565 -140 -127 -295 -266 -345 -310 -49 -43 -182
-161 -295 -260 -343 -303 -654 -571 -675 -582 -26 -14 -61 -1 -67 25 -3 10 24
115 59 233 593 1983 944 3549 1122 5021 58 476 106 1072 113 1388 2 139 -3
136 223 138 314 4 851 39 1260 83 1503 158 3113 525 5109 1162 93 30 178 52
188 49 11 -2 23 -14 28 -26z m-2659 -3987 c288 -37 529 -153 735 -352 188
-181 315 -410 371 -667 25 -119 25 -391 0 -510 -110 -511 -496 -897 -1007
-1007 -119 -25 -391 -25 -510 0 -431 93 -794 401 -945 803 -180 477 -66 1004
294 1365 135 134 265 218 456 295 176 71 407 99 606 73z"/>
<path d="M9025 9233 c-383 -123 -1031 -312 -1515 -443 l-116 -31 -88 -150
c-49 -82 -122 -199 -163 -260 -40 -62 -75 -115 -78 -119 -2 -4 6 -5 18 -3 12
2 175 24 362 48 597 80 1035 151 1055 172 95 102 740 841 740 848 0 8 -1 7
-215 -62z"/>
<path d="M6950 8649 c-447 -112 -1093 -251 -1513 -324 -92 -16 -98 -19 -114
-48 -9 -18 -42 -74 -74 -124 -54 -85 -57 -93 -36 -93 67 0 677 45 962 70 457
42 746 77 761 92 33 36 314 476 314 493 0 9 -16 5 -300 -66z"/>
<path d="M8100 8269 c-270 -43 -1041 -149 -1083 -149 -23 0 -43 -21 -129 -137
-175 -236 -385 -495 -616 -763 -50 -58 -92 -107 -92 -110 0 -10 884 -140 951
-140 17 0 200 192 625 655 238 259 579 637 603 668 17 21 40 24 -259 -24z"/>
<path d="M5030 8259 c-337 -54 -1024 -139 -1121 -139 -37 0 -50 -11 -84 -69
-6 -11 89 -13 610 -9 l617 4 24 29 c32 39 137 205 133 209 -2 1 -83 -10 -179
-25z"/>
<path d="M3550 8089 c-47 -4 -121 -8 -165 -9 -69 -2 -75 -3 -40 -10 22 -5 113
-11 201 -15 157 -7 162 -7 173 13 6 11 11 23 11 26 0 7 -66 5 -180 -5z"/>
<path d="M6660 8079 c-360 -43 -1304 -119 -1476 -119 l-64 0 -57 -77 c-68 -93
-249 -317 -317 -392 -38 -43 -45 -56 -34 -62 23 -13 517 -133 773 -188 308
-66 564 -113 575 -106 28 17 398 456 566 670 189 243 226 295 207 294 -10 -1
-88 -10 -173 -20z"/>
<path d="M3070 7987 c7 -7 427 -177 438 -177 5 0 34 32 66 70 52 63 55 70 34
70 -40 0 -440 30 -492 36 -28 4 -49 4 -46 1z"/>
<path d="M4309 7943 l-556 -3 -66 -80 c-37 -43 -67 -82 -67 -84 0 -3 15 -12
33 -20 66 -27 526 -177 712 -231 105 -31 197 -58 206 -60 10 -4 43 27 101 92
111 129 308 374 308 384 0 5 -26 8 -57 7 -32 -2 -308 -4 -614 -5z"/>
<path d="M3125 7751 l170 -172 67 73 c37 40 64 76 60 79 -6 5 -423 176 -456
188 -6 2 66 -74 159 -168z"/>
<path d="M2954 7654 c46 -109 89 -216 97 -236 7 -21 16 -38 19 -38 3 0 37 29
75 64 l70 65 -172 172 -172 173 83 -200z"/>
<path d="M2814 7690 c3 -25 13 -146 21 -270 9 -123 17 -225 18 -227 7 -6 132
110 129 120 -6 22 -164 412 -169 417 -3 3 -3 -15 1 -40z"/>
<path d="M3451 7599 l-84 -91 321 -321 322 -322 151 150 c83 83 195 198 250
256 l99 106 -178 52 c-133 40 -638 204 -782 255 -10 3 -44 -26 -99 -85z"/>
<path d="M2716 7518 c-12 -113 -38 -460 -34 -463 1 -2 18 10 37 26 l35 28 -13
228 c-7 125 -15 230 -16 231 -2 2 -6 -20 -9 -50z"/>
<path d="M3196 7356 l-88 -83 92 -269 c50 -148 118 -359 151 -468 32 -110 61
-201 64 -204 2 -2 39 26 82 64 118 104 396 359 415 381 17 18 6 30 -305 340
l-322 321 -89 -82z"/>
<path d="M4352 7070 l-271 -277 420 -419 419 -419 388 390 c434 436 668 684
655 694 -4 4 -53 16 -108 25 -197 35 -665 139 -946 210 l-286 72 -271 -276z"/>
<path d="M2942 7133 l-82 -67 0 -541 c0 -297 -3 -571 -7 -610 l-6 -70 49 41
c145 119 345 288 387 326 l48 43 -70 230 c-68 227 -199 623 -224 684 l-14 32
-81 -68z"/>
<path d="M5965 6878 c-71 -79 -320 -334 -552 -568 l-422 -426 280 -279 280
-280 386 389 c442 446 1126 1160 1115 1163 -4 1 -97 14 -207 28 -184 24 -684
99 -730 111 -16 4 -48 -26 -150 -138z"/>
<path d="M2708 6945 c-27 -20 -48 -44 -48 -53 0 -97 -162 -1248 -186 -1326 -7
-22 4 -15 173 119 l101 79 7 181 c3 99 5 373 3 608 l-3 429 -47 -37z"/>
<path d="M3969 6694 c-34 -38 -339 -316 -441 -403 l-86 -73 25 -86 c69 -249
215 -882 258 -1122 10 -52 21 -99 24 -103 11 -11 444 373 904 802 l188 175
-418 418 c-230 230 -421 418 -424 418 -3 0 -16 -12 -30 -26z"/>
<path d="M3270 6068 c-47 -41 -160 -135 -251 -211 -92 -75 -169 -144 -173
-153 -3 -8 -6 -48 -6 -87 0 -171 -75 -1134 -114 -1467 -7 -63 -12 -117 -10
-119 5 -6 809 661 932 774 11 10 8 37 -13 151 -66 342 -237 1079 -269 1157
l-11 29 -85 -74z"/>
<path d="M4810 5719 c-159 -151 -623 -574 -838 -763 -167 -147 -202 -183 -198
-200 12 -48 97 -597 122 -794 16 -117 32 -211 36 -210 17 6 738 701 1128 1086
l415 410 -280 281 c-154 155 -282 281 -285 281 -3 -1 -48 -42 -100 -91z"/>
<path d="M2695 5596 c-65 -54 -224 -174 -236 -178 -5 -2 -33 -123 -60 -268
-83 -439 -201 -979 -322 -1477 -24 -101 -43 -183 -40 -183 2 0 129 99 283 220
244 193 280 225 285 253 33 198 142 1533 133 1633 l-3 33 -40 -33z"/>
<path d="M3600 4633 c-112 -98 -585 -493 -745 -622 -77 -63 -144 -117 -148
-121 -5 -4 -13 -45 -19 -91 -25 -221 -112 -862 -147 -1094 -22 -142 -39 -261
-37 -263 6 -6 674 602 1129 1026 151 142 197 190 197 209 0 74 -136 1001 -149
1015 -3 3 -40 -23 -81 -59z"/>
<path d="M2362 3616 c-121 -96 -254 -200 -296 -231 -61 -46 -78 -65 -85 -94
-92 -361 -344 -1267 -450 -1614 -29 -96 -35 -124 -22 -115 46 36 782 680 855
748 22 21 82 402 166 1045 60 462 57 435 54 435 -1 0 -101 -78 -222 -174z"/>
<path d="M6460 5335 c-622 -96 -1064 -663 -1002 -1283 15 -152 49 -269 117
-409 263 -535 873 -791 1437 -603 182 61 313 143 459 289 146 146 228 277 289
459 161 482 -6 1016 -412 1323 -97 72 -274 161 -388 193 -160 45 -336 56 -500
31z m308 -743 c211 -66 341 -272 311 -492 -57 -403 -589 -523 -814 -184 -166
250 -44 590 244 678 67 21 188 20 259 -2z"/>
</g>
</svg>
