<?xml version="1.0" standalone="no"?>
<!DOCTYPE svg PUBLIC "-//W3C//DTD SVG 20010904//EN"
 "http://www.w3.org/TR/2001/REC-SVG-20010904/DTD/svg10.dtd">
<svg version="1.0" xmlns="http://www.w3.org/2000/svg"
 width="32.000000pt" height="32.000000pt" viewBox="0 0 32.000000 32.000000"
 preserveAspectRatio="xMidYMid meet">

<g transform="translate(0.000000,32.000000) scale(0.100000,-0.100000)"
fill="#000000" stroke="none">
<path d="M0 160 l0 -160 160 0 160 0 0 160 0 160 -160 0 -160 0 0 -160z m210
112 c0 -36 28 -78 43 -63 14 14 30 14 21 0 -8 -14 -215 -112 -221 -105 -3 3 6
10 21 15 14 6 26 13 26 15 0 18 -26 56 -46 67 -30 15 -25 21 57 64 81 43 99
44 99 7z m90 -120 c0 -42 -29 -95 -61 -113 -22 -11 -116 -7 -152 7 -32 12 -19
34 20 34 53 0 120 36 150 81 30 45 43 42 43 -9z"/>
<path d="M118 255 l-67 -35 28 -27 c15 -16 30 -35 33 -43 4 -12 15 -10 61 14
l56 29 -14 28 c-8 15 -15 37 -15 49 0 26 -2 25 -82 -15z"/>
<path d="M272 163 c-8 -15 -9 -24 -1 -28 15 -10 21 0 17 27 l-3 23 -13 -22z"/>
<path d="M237 116 c-7 -17 18 -40 33 -31 15 9 12 32 -6 39 -21 8 -21 8 -27 -8z"/>
<path d="M197 93 c-12 -11 -8 -19 16 -30 34 -15 49 -5 26 18 -20 20 -31 23
-42 12z"/>
<path d="M170 62 c0 -17 6 -22 27 -22 14 0 24 1 22 3 -2 1 -14 11 -26 21 -23
19 -23 19 -23 -2z"/>
<path d="M80 66 c0 -2 7 -6 15 -10 8 -3 15 -1 15 4 0 6 -7 10 -15 10 -8 0 -15
-2 -15 -4z"/>
<path d="M130 55 c7 -8 16 -15 21 -15 5 0 9 7 9 15 0 9 -9 15 -21 15 -18 0
-19 -2 -9 -15z"/>
</g>
</svg>
